<?xml version="1.0" standalone="no"?>
<!DOCTYPE svg PUBLIC "-//W3C//DTD SVG 20010904//EN"
 "http://www.w3.org/TR/2001/REC-SVG-20010904/DTD/svg10.dtd">
<svg version="1.0" xmlns="http://www.w3.org/2000/svg"
 width="56.000000pt" height="57.000000pt" viewBox="0 0 56.000000 57.000000"
 preserveAspectRatio="xMidYMid meet">
<metadata>
Created by potrace 1.10, written by Peter Selinger 2001-2011
</metadata>
<g transform="translate(0.000000,57.000000) scale(0.100000,-0.100000)"
fill="#000000" stroke="none">
<path d="M96 464 c-27 -27 -18 -46 56 -121 l72 -73 -72 -73 c-71 -71 -85 -100
-60 -125 25 -25 54 -11 125 60 l73 72 74 -73 c64 -63 78 -73 99 -67 14 3 29
16 32 27 6 17 -7 36 -69 98 l-76 76 70 70 c39 38 73 78 76 88 7 21 -21 57 -44
57 -8 0 -49 -34 -91 -75 l-77 -75 -74 75 c-41 41 -80 75 -87 75 -6 0 -19 -7
-27 -16z m104 -89 c67 -68 89 -70 157 -17 26 21 54 46 62 55 14 18 31 23 31
10 0 -5 -25 -34 -55 -66 -77 -81 -76 -99 1 -177 49 -51 66 -80 46 -80 -4 0
-30 23 -57 50 -27 28 -55 50 -61 50 -7 0 -14 5 -16 11 -7 21 -57 -4 -113 -57
-54 -51 -75 -64 -75 -46 0 4 23 32 51 62 84 91 84 113 -5 200 -25 24 -46 48
-46 52 0 21 31 3 80 -47z"/>
</g>
</svg>
